<svg width="201" height="44" viewBox="0 0 201 44" fill="none" xmlns="http://www.w3.org/2000/svg">
<path d="M46.8 13.94C46.8 12.44 48.03 11.3 49.53 11.3H59.13V12.8H49.5C48.81 12.8 48.3 13.34 48.3 14.03V29.27C48.3 29.96 48.81 30.5 49.5 30.5H59.13V32H49.53C47.97 32 46.8 30.83 46.8 29.27V13.94ZM63.6223 32H62.1223V17.3H63.6223V32ZM63.6223 12.8H62.1223V11.3H63.6223V12.8ZM68.7199 32H67.2199V17.3H79.2799C80.6599 17.3 81.7399 18.38 81.7399 19.79V32H80.2399V19.76C80.2399 19.22 79.8199 18.8 79.2799 18.8H68.7199V32ZM88.0554 32C86.5554 32 85.3254 30.77 85.3254 29.24V20.06C85.3254 18.53 86.5554 17.3 88.0854 17.3H97.0854C98.6154 17.3 99.8454 18.53 99.8454 20.06V23.18C99.8454 24.71 98.6154 25.94 97.0854 25.94H86.8254V29.24C86.8254 29.9 87.3054 30.5 88.0254 30.5H98.6454V32H88.0554ZM86.8254 20.03V24.44H97.0854C97.7754 24.44 98.3454 23.96 98.3454 23.21V20.03C98.3454 19.28 97.7454 18.8 97.0854 18.8H88.0854C87.4254 18.8 86.8254 19.28 86.8254 20.03ZM114.035 32H102.245V30.5H114.035C114.755 30.5 115.265 29.99 115.265 29.27V23.66C115.265 22.97 114.785 22.4 114.035 22.4H104.975C103.445 22.4 102.245 21.2 102.245 19.64V14.06C102.245 12.56 103.475 11.3 104.975 11.3H116.765V12.8H104.975C104.315 12.8 103.745 13.37 103.745 14.03V19.67C103.745 20.36 104.315 20.9 104.975 20.9H114.035C115.565 20.9 116.765 22.16 116.765 23.69V29.27C116.765 30.83 115.595 32 114.035 32ZM122.509 32C121.009 32 119.779 30.77 119.779 29.24V20.06C119.779 18.53 121.009 17.3 122.539 17.3H131.539C133.069 17.3 134.299 18.53 134.299 20.06V23.18C134.299 24.71 133.069 25.94 131.539 25.94H121.279V29.24C121.279 29.9 121.759 30.5 122.479 30.5H133.099V32H122.509ZM121.279 20.03V24.44H131.539C132.229 24.44 132.799 23.96 132.799 23.21V20.03C132.799 19.28 132.199 18.8 131.539 18.8H122.539C121.879 18.8 121.279 19.28 121.279 20.03ZM136.698 25.7C136.698 24.14 137.898 22.97 139.428 22.97H149.718V20.03C149.718 19.34 149.178 18.8 148.488 18.8H138.798V17.3H148.488C150.048 17.3 151.218 18.47 151.218 20.06V32H139.428C137.868 32 136.698 30.83 136.698 29.27V25.7ZM138.198 29.27C138.198 29.9 138.768 30.5 139.398 30.5H149.718V24.47H139.398C138.768 24.47 138.198 25.07 138.198 25.7V29.27ZM156.318 32H154.818V20.3C154.818 18.77 156.048 17.51 157.548 17.51H164.478V19.01H157.518C156.798 19.01 156.318 19.58 156.318 20.27V32ZM169.618 32C168.058 32 166.888 30.8 166.888 29.21V20.09C166.888 18.56 168.118 17.3 169.618 17.3H181.408V18.8H169.588C168.868 18.8 168.388 19.37 168.388 20.06V29.24C168.388 29.96 168.898 30.5 169.588 30.5H181.408V32H169.618ZM185.907 32H184.407V11.3H185.907V17.3H196.167C197.697 17.3 198.927 18.53 198.927 20.06V32H197.427V20.03C197.427 19.31 196.827 18.8 196.167 18.8H185.907V32Z" fill="#F5C519"/>
<path d="M0 9.5625C0 7.14941 1.96191 5.1875 4.375 5.1875H30.625C33.0381 5.1875 35 7.14941 35 9.5625V31.4375C35 33.8506 33.0381 35.8125 30.625 35.8125H4.375C1.96191 35.8125 0 33.8506 0 31.4375V9.5625ZM3.28125 28.1562V30.3438C3.28125 30.9453 3.77344 31.4375 4.375 31.4375H6.5625C7.16406 31.4375 7.65625 30.9453 7.65625 30.3438V28.1562C7.65625 27.5547 7.16406 27.0625 6.5625 27.0625H4.375C3.77344 27.0625 3.28125 27.5547 3.28125 28.1562ZM28.4375 27.0625C27.8359 27.0625 27.3438 27.5547 27.3438 28.1562V30.3438C27.3438 30.9453 27.8359 31.4375 28.4375 31.4375H30.625C31.2266 31.4375 31.7188 30.9453 31.7188 30.3438V28.1562C31.7188 27.5547 31.2266 27.0625 30.625 27.0625H28.4375ZM3.28125 19.4062V21.5938C3.28125 22.1953 3.77344 22.6875 4.375 22.6875H6.5625C7.16406 22.6875 7.65625 22.1953 7.65625 21.5938V19.4062C7.65625 18.8047 7.16406 18.3125 6.5625 18.3125H4.375C3.77344 18.3125 3.28125 18.8047 3.28125 19.4062ZM28.4375 18.3125C27.8359 18.3125 27.3438 18.8047 27.3438 19.4062V21.5938C27.3438 22.1953 27.8359 22.6875 28.4375 22.6875H30.625C31.2266 22.6875 31.7188 22.1953 31.7188 21.5938V19.4062C31.7188 18.8047 31.2266 18.3125 30.625 18.3125H28.4375ZM3.28125 10.6562V12.8438C3.28125 13.4453 3.77344 13.9375 4.375 13.9375H6.5625C7.16406 13.9375 7.65625 13.4453 7.65625 12.8438V10.6562C7.65625 10.0547 7.16406 9.5625 6.5625 9.5625H4.375C3.77344 9.5625 3.28125 10.0547 3.28125 10.6562ZM28.4375 9.5625C27.8359 9.5625 27.3438 10.0547 27.3438 10.6562V12.8438C27.3438 13.4453 27.8359 13.9375 28.4375 13.9375H30.625C31.2266 13.9375 31.7188 13.4453 31.7188 12.8438V10.6562C31.7188 10.0547 31.2266 9.5625 30.625 9.5625H28.4375ZM10.9375 11.75V16.125C10.9375 17.335 11.915 18.3125 13.125 18.3125H21.875C23.085 18.3125 24.0625 17.335 24.0625 16.125V11.75C24.0625 10.54 23.085 9.5625 21.875 9.5625H13.125C11.915 9.5625 10.9375 10.54 10.9375 11.75ZM13.125 22.6875C11.915 22.6875 10.9375 23.665 10.9375 24.875V29.25C10.9375 30.46 11.915 31.4375 13.125 31.4375H21.875C23.085 31.4375 24.0625 30.46 24.0625 29.25V24.875C24.0625 23.665 23.085 22.6875 21.875 22.6875H13.125Z" fill="#F5C519"/>
</svg>
